<mxfile host="Electron" modified="2023-10-22T20:21:56.688Z" agent="Mozilla/5.0 (Windows NT 10.0; Win64; x64) AppleWebKit/537.36 (KHTML, like Gecko) draw.io/22.0.3 Chrome/114.0.5735.289 Electron/25.8.4 Safari/537.36" etag="KowkR5SzfcDnM-KdHR-g" version="22.0.3" type="device">
  <diagram name="Сторінка-1" id="wFB8E3gri7KfCi7qT49r">
    <mxGraphModel dx="1036" dy="606" grid="1" gridSize="10" guides="1" tooltips="1" connect="1" arrows="1" fold="1" page="1" pageScale="1" pageWidth="827" pageHeight="1169" math="0" shadow="0">
      <root>
        <mxCell id="0" />
        <mxCell id="1" parent="0" />
        <mxCell id="8oXhcQmZLIugMqL3GXfh-3" value="" style="edgeStyle=orthogonalEdgeStyle;rounded=0;orthogonalLoop=1;jettySize=auto;html=1;" edge="1" parent="1" source="8oXhcQmZLIugMqL3GXfh-1" target="8oXhcQmZLIugMqL3GXfh-2">
          <mxGeometry relative="1" as="geometry" />
        </mxCell>
        <mxCell id="8oXhcQmZLIugMqL3GXfh-1" value="start" style="rounded=1;whiteSpace=wrap;html=1;" vertex="1" parent="1">
          <mxGeometry x="294" y="70" width="120" height="60" as="geometry" />
        </mxCell>
        <mxCell id="8oXhcQmZLIugMqL3GXfh-6" value="" style="edgeStyle=orthogonalEdgeStyle;rounded=0;orthogonalLoop=1;jettySize=auto;html=1;" edge="1" parent="1" source="8oXhcQmZLIugMqL3GXfh-2" target="8oXhcQmZLIugMqL3GXfh-5">
          <mxGeometry relative="1" as="geometry" />
        </mxCell>
        <mxCell id="8oXhcQmZLIugMqL3GXfh-2" value="int size_masiv = 100" style="rounded=0;whiteSpace=wrap;html=1;" vertex="1" parent="1">
          <mxGeometry x="294" y="160" width="120" height="60" as="geometry" />
        </mxCell>
        <mxCell id="8oXhcQmZLIugMqL3GXfh-8" value="" style="edgeStyle=orthogonalEdgeStyle;rounded=0;orthogonalLoop=1;jettySize=auto;html=1;" edge="1" parent="1" source="8oXhcQmZLIugMqL3GXfh-5" target="8oXhcQmZLIugMqL3GXfh-7">
          <mxGeometry relative="1" as="geometry" />
        </mxCell>
        <mxCell id="8oXhcQmZLIugMqL3GXfh-5" value="cin &amp;gt;&amp;gt; N" style="shape=parallelogram;perimeter=parallelogramPerimeter;whiteSpace=wrap;html=1;fixedSize=1;" vertex="1" parent="1">
          <mxGeometry x="294" y="260" width="120" height="60" as="geometry" />
        </mxCell>
        <mxCell id="8oXhcQmZLIugMqL3GXfh-10" value="" style="edgeStyle=orthogonalEdgeStyle;rounded=0;orthogonalLoop=1;jettySize=auto;html=1;" edge="1" parent="1" source="8oXhcQmZLIugMqL3GXfh-7" target="8oXhcQmZLIugMqL3GXfh-9">
          <mxGeometry relative="1" as="geometry" />
        </mxCell>
        <mxCell id="8oXhcQmZLIugMqL3GXfh-7" value="i = 0; i &amp;lt; N; i++" style="shape=hexagon;perimeter=hexagonPerimeter2;whiteSpace=wrap;html=1;fixedSize=1;" vertex="1" parent="1">
          <mxGeometry x="294" y="360" width="120" height="80" as="geometry" />
        </mxCell>
        <mxCell id="8oXhcQmZLIugMqL3GXfh-9" value="&amp;nbsp;cin &amp;gt;&amp;gt; Number[i]" style="shape=parallelogram;perimeter=parallelogramPerimeter;whiteSpace=wrap;html=1;fixedSize=1;" vertex="1" parent="1">
          <mxGeometry x="294" y="470" width="120" height="60" as="geometry" />
        </mxCell>
        <mxCell id="8oXhcQmZLIugMqL3GXfh-11" value="" style="endArrow=classic;html=1;rounded=0;exitX=0.5;exitY=1;exitDx=0;exitDy=0;entryX=0;entryY=0.5;entryDx=0;entryDy=0;" edge="1" parent="1" source="8oXhcQmZLIugMqL3GXfh-9" target="8oXhcQmZLIugMqL3GXfh-7">
          <mxGeometry width="50" height="50" relative="1" as="geometry">
            <mxPoint x="360" y="540" as="sourcePoint" />
            <mxPoint x="240" y="400" as="targetPoint" />
            <Array as="points">
              <mxPoint x="354" y="560" />
              <mxPoint x="240" y="560" />
              <mxPoint x="240" y="400" />
            </Array>
          </mxGeometry>
        </mxCell>
        <mxCell id="8oXhcQmZLIugMqL3GXfh-12" value="" style="endArrow=classic;html=1;rounded=0;exitX=1;exitY=0.5;exitDx=0;exitDy=0;" edge="1" parent="1" source="8oXhcQmZLIugMqL3GXfh-7">
          <mxGeometry width="50" height="50" relative="1" as="geometry">
            <mxPoint x="390" y="380" as="sourcePoint" />
            <mxPoint x="360" y="640" as="targetPoint" />
            <Array as="points">
              <mxPoint x="480" y="400" />
              <mxPoint x="480" y="600" />
              <mxPoint x="360" y="600" />
            </Array>
          </mxGeometry>
        </mxCell>
        <mxCell id="8oXhcQmZLIugMqL3GXfh-15" value="" style="edgeStyle=orthogonalEdgeStyle;rounded=0;orthogonalLoop=1;jettySize=auto;html=1;" edge="1" parent="1" source="8oXhcQmZLIugMqL3GXfh-13" target="8oXhcQmZLIugMqL3GXfh-14">
          <mxGeometry relative="1" as="geometry" />
        </mxCell>
        <mxCell id="8oXhcQmZLIugMqL3GXfh-13" value="sort(Number, Number + N)" style="rounded=0;whiteSpace=wrap;html=1;" vertex="1" parent="1">
          <mxGeometry x="300" y="640" width="120" height="60" as="geometry" />
        </mxCell>
        <mxCell id="8oXhcQmZLIugMqL3GXfh-17" value="" style="edgeStyle=orthogonalEdgeStyle;rounded=0;orthogonalLoop=1;jettySize=auto;html=1;" edge="1" parent="1" source="8oXhcQmZLIugMqL3GXfh-14" target="8oXhcQmZLIugMqL3GXfh-16">
          <mxGeometry relative="1" as="geometry" />
        </mxCell>
        <mxCell id="8oXhcQmZLIugMqL3GXfh-14" value="fatigue_1 = Number[N - 1] - Number[1]" style="rounded=0;whiteSpace=wrap;html=1;" vertex="1" parent="1">
          <mxGeometry x="300" y="740" width="120" height="60" as="geometry" />
        </mxCell>
        <mxCell id="8oXhcQmZLIugMqL3GXfh-19" value="" style="edgeStyle=orthogonalEdgeStyle;rounded=0;orthogonalLoop=1;jettySize=auto;html=1;" edge="1" parent="1" source="8oXhcQmZLIugMqL3GXfh-16" target="8oXhcQmZLIugMqL3GXfh-18">
          <mxGeometry relative="1" as="geometry" />
        </mxCell>
        <mxCell id="8oXhcQmZLIugMqL3GXfh-16" value="fatigue_2 = Number[N - 2] - Number[0]" style="rounded=0;whiteSpace=wrap;html=1;" vertex="1" parent="1">
          <mxGeometry x="300" y="840" width="120" height="60" as="geometry" />
        </mxCell>
        <mxCell id="8oXhcQmZLIugMqL3GXfh-18" value="fatigue_1 &amp;lt; fatigue_2" style="rhombus;whiteSpace=wrap;html=1;" vertex="1" parent="1">
          <mxGeometry x="320" y="950" width="80" height="80" as="geometry" />
        </mxCell>
        <mxCell id="8oXhcQmZLIugMqL3GXfh-20" value="" style="endArrow=classic;html=1;rounded=0;exitX=0;exitY=0.5;exitDx=0;exitDy=0;" edge="1" parent="1" source="8oXhcQmZLIugMqL3GXfh-18">
          <mxGeometry width="50" height="50" relative="1" as="geometry">
            <mxPoint x="390" y="820" as="sourcePoint" />
            <mxPoint x="280" y="1080" as="targetPoint" />
            <Array as="points">
              <mxPoint x="280" y="990" />
            </Array>
          </mxGeometry>
        </mxCell>
        <mxCell id="8oXhcQmZLIugMqL3GXfh-24" value="Yes" style="text;html=1;align=center;verticalAlign=middle;resizable=0;points=[];autosize=1;strokeColor=none;fillColor=none;" vertex="1" parent="1">
          <mxGeometry x="280" y="968" width="40" height="30" as="geometry" />
        </mxCell>
        <mxCell id="8oXhcQmZLIugMqL3GXfh-25" value="" style="endArrow=classic;html=1;rounded=0;exitX=1;exitY=0.5;exitDx=0;exitDy=0;" edge="1" parent="1" source="8oXhcQmZLIugMqL3GXfh-18">
          <mxGeometry width="50" height="50" relative="1" as="geometry">
            <mxPoint x="390" y="820" as="sourcePoint" />
            <mxPoint x="440" y="1080" as="targetPoint" />
            <Array as="points">
              <mxPoint x="440" y="990" />
            </Array>
          </mxGeometry>
        </mxCell>
        <mxCell id="8oXhcQmZLIugMqL3GXfh-26" value="No" style="text;html=1;align=center;verticalAlign=middle;resizable=0;points=[];autosize=1;strokeColor=none;fillColor=none;" vertex="1" parent="1">
          <mxGeometry x="400" y="958" width="40" height="30" as="geometry" />
        </mxCell>
        <mxCell id="8oXhcQmZLIugMqL3GXfh-27" value="result = fatigue_1" style="rounded=0;whiteSpace=wrap;html=1;" vertex="1" parent="1">
          <mxGeometry x="220" y="1080" width="120" height="60" as="geometry" />
        </mxCell>
        <mxCell id="8oXhcQmZLIugMqL3GXfh-28" value="result = fatigue_2" style="rounded=0;whiteSpace=wrap;html=1;" vertex="1" parent="1">
          <mxGeometry x="390" y="1080" width="120" height="60" as="geometry" />
        </mxCell>
        <mxCell id="8oXhcQmZLIugMqL3GXfh-29" value="" style="endArrow=classic;html=1;rounded=0;exitX=0.5;exitY=1;exitDx=0;exitDy=0;" edge="1" parent="1" source="8oXhcQmZLIugMqL3GXfh-27">
          <mxGeometry width="50" height="50" relative="1" as="geometry">
            <mxPoint x="390" y="1100" as="sourcePoint" />
            <mxPoint x="370" y="1180" as="targetPoint" />
            <Array as="points">
              <mxPoint x="280" y="1160" />
              <mxPoint x="370" y="1160" />
            </Array>
          </mxGeometry>
        </mxCell>
        <mxCell id="8oXhcQmZLIugMqL3GXfh-30" value="" style="endArrow=classic;html=1;rounded=0;exitX=0.443;exitY=0.997;exitDx=0;exitDy=0;exitPerimeter=0;" edge="1" parent="1" source="8oXhcQmZLIugMqL3GXfh-28">
          <mxGeometry width="50" height="50" relative="1" as="geometry">
            <mxPoint x="530" y="1260" as="sourcePoint" />
            <mxPoint x="370" y="1160" as="targetPoint" />
            <Array as="points">
              <mxPoint x="443" y="1160" />
            </Array>
          </mxGeometry>
        </mxCell>
        <mxCell id="8oXhcQmZLIugMqL3GXfh-31" value="cout &amp;lt;&amp;lt; &quot;Minimal fatigue: &quot; &amp;lt;&amp;lt; result" style="shape=parallelogram;perimeter=parallelogramPerimeter;whiteSpace=wrap;html=1;fixedSize=1;" vertex="1" parent="1">
          <mxGeometry x="310" y="1180" width="120" height="60" as="geometry" />
        </mxCell>
        <mxCell id="8oXhcQmZLIugMqL3GXfh-32" value="" style="endArrow=classic;html=1;rounded=0;exitX=0.5;exitY=1;exitDx=0;exitDy=0;" edge="1" parent="1" source="8oXhcQmZLIugMqL3GXfh-31" target="8oXhcQmZLIugMqL3GXfh-33">
          <mxGeometry width="50" height="50" relative="1" as="geometry">
            <mxPoint x="390" y="1100" as="sourcePoint" />
            <mxPoint x="370" y="1280" as="targetPoint" />
          </mxGeometry>
        </mxCell>
        <mxCell id="8oXhcQmZLIugMqL3GXfh-33" value="end" style="rounded=1;whiteSpace=wrap;html=1;" vertex="1" parent="1">
          <mxGeometry x="310" y="1270" width="120" height="60" as="geometry" />
        </mxCell>
      </root>
    </mxGraphModel>
  </diagram>
</mxfile>
